<svg version="1.1" id="Layer_1" xmlns="http://www.w3.org/2000/svg" xmlns:xlink="http://www.w3.org/1999/xlink" x="0px" y="0px"
	 width="100%" viewBox="0 0 500 500" enable-background="new 0 0 500 500" xml:space="preserve">
<path fill="#000000" opacity="1.000000" stroke="none" 
	d="
M491.039001,501.000000 
	C327.366760,501.000000 164.201263,501.000000 1.017893,501.000000 
	C1.017893,334.346466 1.017893,167.692947 1.017893,1.019711 
	C167.652313,1.019711 334.304626,1.019711 500.978455,1.019711 
	C500.978455,167.651108 500.978455,334.302216 500.978455,501.000000 
	C497.848663,501.000000 494.697235,501.000000 491.039001,501.000000 
M166.853043,107.801926 
	C166.853043,107.801926 166.883911,107.843498 166.853043,107.801926 
M404.710968,356.871155 
	C404.710968,356.871155 404.973969,356.829254 404.973969,356.829254 
	C404.973969,356.829254 404.718658,356.762543 404.710968,356.871155 
M398.507141,355.030304 
	C398.507141,355.030304 398.472290,354.998077 398.507141,355.030304 
M406.927429,354.506683 
	C406.927429,354.506683 406.982483,354.440674 406.927429,354.506683 
M280.553009,399.494720 
	C280.553009,399.494720 280.479950,399.528839 280.553009,399.494720 
z"/>
<path fill="#040404" opacity="1.000000" stroke="none" 
	d="
M166.868469,107.822708 
	C166.883911,107.843498 166.853043,107.801926 166.868469,107.822708 
z"/>
<path fill="#090909" opacity="1.000000" stroke="none" 
	d="
M404.714813,356.816833 
	C404.718658,356.762543 404.973969,356.829254 404.973969,356.829254 
	C404.973969,356.829254 404.710968,356.871155 404.714813,356.816833 
z"/>
<path fill="#090909" opacity="1.000000" stroke="none" 
	d="
M398.489716,355.014191 
	C398.472290,354.998077 398.507141,355.030304 398.489716,355.014191 
z"/>
<path fill="#090909" opacity="1.000000" stroke="none" 
	d="
M406.954956,354.473694 
	C406.982483,354.440674 406.927429,354.506683 406.954956,354.473694 
z"/>
<path fill="#060606" opacity="1.000000" stroke="none" 
	d="
M280.516479,399.511780 
	C280.479950,399.528839 280.553009,399.494720 280.516479,399.511780 
z"/>
</svg>